<?xml version="1.0" standalone="no"?>
<!DOCTYPE svg PUBLIC "-//W3C//DTD SVG 20010904//EN"
 "http://www.w3.org/TR/2001/REC-SVG-20010904/DTD/svg10.dtd">
<svg version="1.0" xmlns="http://www.w3.org/2000/svg"
 width="150.000000pt" height="150.000000pt" viewBox="0 0 150.000000 150.000000"
 preserveAspectRatio="xMidYMid meet">
<metadata>
Created by potrace 1.11, written by Peter Selinger 2001-2013
</metadata>
<g transform="translate(0.000000,150.000000) scale(0.100000,-0.100000)"
fill="#000000" stroke="none">
<path d="M723 1282 c-6 -4 -16 -20 -22 -35 -9 -23 -8 -27 8 -27 20 0 74 -39
54 -40 -6 0 -14 4 -17 9 -3 5 -20 11 -37 13 -25 4 -33 0 -41 -18 -17 -37 -3
-71 32 -76 18 -3 35 1 44 11 9 8 18 12 21 9 13 -13 -29 -40 -57 -36 -28 4 -28
4 -28 -48 0 -50 -2 -55 -37 -79 -30 -20 -39 -22 -41 -11 -2 8 -23 21 -48 30
-37 13 -46 13 -58 1 -15 -15 -30 -80 -22 -94 3 -5 0 -14 -8 -20 -10 -9 -15 -3
-25 28 -13 46 -87 116 -132 126 -38 9 -95 -24 -166 -96 -65 -65 -67 -86 -12
-121 l42 -27 65 67 c64 65 66 66 73 42 12 -43 10 -78 -6 -84 -73 -28 -305
-220 -305 -253 0 -45 98 -138 134 -127 11 3 54 21 95 39 66 29 76 31 99 19 38
-20 98 -27 121 -15 18 10 20 18 16 74 -3 34 -7 85 -9 113 -2 28 0 57 5 65 7
11 9 10 10 -6 6 -105 24 -201 40 -210 14 -9 129 -15 129 -7 0 5 -6 14 -12 20
-9 9 -13 54 -13 149 l0 136 27 20 c33 24 36 22 43 -26 3 -20 7 -54 10 -74 11
-78 38 -169 56 -191 21 -27 57 -31 112 -13 44 15 53 51 13 51 -27 0 -31 10
-41 115 -3 33 -10 86 -14 117 -4 32 -5 62 -1 67 18 29 250 113 445 161 104 25
141 33 203 44 19 3 37 25 27 33 -4 5 -10 2 -12 -4 -3 -7 -11 -13 -19 -13 -11
0 -14 16 -14 68 0 37 -4 61 -8 55 -4 -7 -7 -37 -6 -68 2 -59 -13 -74 -34 -32
-7 12 -17 30 -24 39 -10 14 -8 20 11 37 13 12 18 21 11 21 -7 0 -23 -11 -36
-25 -22 -24 -41 -34 -30 -16 4 5 2 20 -3 33 -8 18 -10 7 -10 -47 l-1 -70 -30
-2 c-17 -1 -30 2 -30 8 0 6 4 8 9 4 6 -3 14 3 20 12 13 26 -3 50 -39 58 -31 7
-40 29 -16 38 7 3 23 -1 35 -9 11 -8 21 -11 21 -5 0 16 -39 33 -59 26 -41 -13
-25 -65 20 -65 23 0 37 -29 19 -40 -15 -9 -50 -1 -50 11 0 5 -5 9 -11 9 -18 0
-4 -24 22 -37 21 -11 16 -13 -46 -14 -112 -2 -277 -23 -350 -44 -19 -6 -20 -2
-17 54 4 57 5 61 28 61 20 0 24 -5 24 -31 0 -16 3 -28 8 -26 4 3 6 29 6 59 -2
70 -5 79 -13 44 -4 -20 -13 -30 -29 -32 -22 -4 -22 -3 -7 32 19 47 19 61 -2
72 -27 14 -96 23 -110 14z m82 -82 c-3 -5 -1 -19 5 -30 6 -12 7 -20 1 -20 -5
0 -8 -11 -6 -25 1 -14 -2 -28 -6 -31 -5 -3 -9 25 -9 61 0 42 4 64 10 60 6 -4
8 -10 5 -15z m575 -80 l21 -30 -25 0 c-14 0 -29 -1 -33 -2 -8 -4 -13 30 -6 48
8 21 20 17 43 -16z m-1067 -470 c3 -10 -1 -24 -9 -30 -13 -12 -105 -42 -110
-37 -4 4 99 87 107 87 4 0 9 -9 12 -20z"/>
<path d="M14 1208 c-2 -4 10 -8 27 -10 l32 -3 -37 -43 c-20 -24 -34 -47 -31
-52 7 -11 85 -11 85 1 0 5 -16 8 -35 6 -23 -3 -32 -1 -28 7 15 25 67 86 73 86
4 0 13 -21 20 -47 18 -67 27 -72 41 -22 14 50 28 72 30 46 1 -9 2 -20 4 -24
21 -78 28 -81 44 -19 6 24 13 51 17 60 3 9 2 16 -4 16 -6 0 -13 -18 -17 -40
-7 -42 -25 -65 -25 -32 0 32 -22 84 -31 75 -5 -5 -15 -29 -22 -54 l-13 -44
-13 50 -12 50 -50 0 c-28 0 -53 -3 -55 -7z"/>
<path d="M326 1210 c-2 -3 -3 -30 -2 -60 l1 -55 43 -2 c23 -2 42 2 42 7 0 6
-15 9 -32 8 -28 -3 -34 1 -36 20 -3 19 1 22 34 22 44 0 40 11 -5 12 -23 1 -31
6 -31 20 0 14 8 18 37 18 20 0 33 3 29 7 -8 8 -76 11 -80 3z"/>
<path d="M439 1211 c-2 -11 -1 -86 1 -106 1 -14 5 -10 11 13 12 40 33 41 55 3
10 -17 22 -27 26 -24 5 3 2 14 -8 24 -16 18 -16 20 1 39 17 19 17 22 3 36 -15
15 -87 27 -89 15z m76 -31 c0 -9 -11 -16 -30 -18 -25 -2 -31 1 -32 18 -2 18 3
21 30 18 20 -2 32 -8 32 -18z"/>
<path d="M564 1209 c-3 -5 9 -9 26 -9 l32 0 -36 -49 c-20 -27 -36 -51 -36 -54
0 -10 90 -5 96 5 3 4 2 8 -3 7 -4 -1 -23 -1 -41 0 l-34 1 42 50 c23 28 38 51
33 51 -41 6 -74 5 -79 -2z"/>
<path d="M929 1201 c-26 -21 -28 -64 -4 -91 36 -39 95 -11 95 44 0 54 -51 80
-91 47z m71 -20 c12 -24 -2 -66 -26 -75 -19 -7 -54 19 -54 41 0 48 59 73 80
34z"/>
<path d="M1089 1168 l-13 -53 -13 48 c-8 26 -18 47 -22 47 -10 0 17 -100 29
-114 5 -5 14 11 21 35 13 47 29 73 29 49 0 -8 5 -32 11 -54 8 -27 14 -35 21
-28 8 8 8 15 1 24 -6 7 -14 27 -17 45 -4 17 -13 37 -21 43 -10 8 -15 0 -26
-42z"/>
<path d="M1176 1209 c-2 -8 -9 -29 -15 -46 -5 -18 -6 -33 -2 -33 9 0 33 82 26
89 -3 2 -6 -2 -9 -10z"/>
<path d="M278 1171 c-2 -21 0 -49 3 -62 8 -29 10 -21 13 49 2 60 -10 71 -16
13z"/>
<path d="M1334 935 c-11 -28 8 -285 27 -365 12 -51 21 -60 66 -60 53 0 63 8
51 38 -5 15 -12 101 -13 192 -4 159 -5 166 -27 183 -13 10 -40 20 -61 24 -29
4 -38 2 -43 -12z"/>
<path d="M1150 790 c-25 -10 -57 -21 -71 -24 l-25 -5 10 -88 c13 -101 12 -116
-5 -160 -11 -27 -11 -35 3 -50 12 -13 17 -45 20 -125 4 -127 12 -141 63 -114
24 13 34 25 33 40 -1 12 3 37 9 56 5 19 11 67 12 105 2 69 3 70 49 115 59 56
86 108 84 160 -2 51 -25 85 -64 99 -43 15 -66 13 -118 -9z m100 -145 c-30 -61
-45 -58 -48 11 -2 53 -1 55 31 69 31 13 32 13 35 -11 2 -14 -6 -45 -18 -69z"/>
<path d="M931 644 c-24 -31 -25 -35 -9 -69 29 -65 118 -32 118 45 0 52 -74 68
-109 24z"/>
</g>
</svg>
